<mxfile host="app.diagrams.net" modified="2021-08-02T15:15:34.288Z" agent="5.0 (Macintosh; Intel Mac OS X 10_15_7) AppleWebKit/537.36 (KHTML, like Gecko) Chrome/92.0.4515.107 Safari/537.36" etag="gVOktSfSfHbnC7AC_2rh" version="14.9.3" type="github">
  <diagram id="hDUggRN_EkKsuiSNLnsy" name="Page-1">
    <mxGraphModel dx="1003" dy="526" grid="1" gridSize="10" guides="1" tooltips="1" connect="1" arrows="1" fold="1" page="1" pageScale="1" pageWidth="827" pageHeight="1169" math="0" shadow="0">
      <root>
        <mxCell id="0" />
        <mxCell id="1" parent="0" />
        <mxCell id="OgCsggQH-eWe1-viaGaM-2" value="&lt;font style=&quot;font-size: 30px&quot;&gt;2&lt;/font&gt;" style="rounded=0;whiteSpace=wrap;html=1;comic=1;fillColor=#f8cecc;strokeColor=#b85450;imageAspect=0;movableLabel=1;resizeWidth=1;resizeHeight=1;" vertex="1" parent="1">
          <mxGeometry x="160" y="280" width="80" height="80" as="geometry" />
        </mxCell>
        <mxCell id="OgCsggQH-eWe1-viaGaM-3" value="&lt;font style=&quot;font-size: 30px&quot;&gt;4&lt;/font&gt;" style="rounded=0;whiteSpace=wrap;html=1;comic=1;fillColor=#f8cecc;strokeColor=#b85450;" vertex="1" parent="1">
          <mxGeometry x="320" y="280" width="80" height="80" as="geometry" />
        </mxCell>
        <mxCell id="OgCsggQH-eWe1-viaGaM-4" value="&lt;font style=&quot;font-size: 30px&quot;&gt;3&lt;/font&gt;" style="rounded=0;whiteSpace=wrap;html=1;comic=1;fillColor=#f8cecc;strokeColor=#b85450;" vertex="1" parent="1">
          <mxGeometry x="480" y="280" width="80" height="80" as="geometry" />
        </mxCell>
        <mxCell id="OgCsggQH-eWe1-viaGaM-5" value="&lt;font style=&quot;font-size: 30px&quot;&gt;5&lt;/font&gt;" style="rounded=0;whiteSpace=wrap;html=1;comic=1;fillColor=#f8cecc;strokeColor=#b85450;" vertex="1" parent="1">
          <mxGeometry x="160" y="400" width="80" height="80" as="geometry" />
        </mxCell>
        <mxCell id="OgCsggQH-eWe1-viaGaM-6" value="&lt;font style=&quot;font-size: 30px&quot;&gt;6&lt;/font&gt;" style="rounded=0;whiteSpace=wrap;html=1;comic=1;fillColor=#f8cecc;strokeColor=#b85450;" vertex="1" parent="1">
          <mxGeometry x="320" y="400" width="80" height="80" as="geometry" />
        </mxCell>
        <mxCell id="OgCsggQH-eWe1-viaGaM-7" value="&lt;font style=&quot;font-size: 30px&quot;&gt;4&lt;/font&gt;" style="rounded=0;whiteSpace=wrap;html=1;comic=1;fillColor=#f8cecc;strokeColor=#b85450;" vertex="1" parent="1">
          <mxGeometry x="480" y="400" width="80" height="80" as="geometry" />
        </mxCell>
        <mxCell id="OgCsggQH-eWe1-viaGaM-8" value="" style="endArrow=classic;html=1;strokeWidth=4;" edge="1" parent="1">
          <mxGeometry width="50" height="50" relative="1" as="geometry">
            <mxPoint x="600.5" y="550" as="sourcePoint" />
            <mxPoint x="600.5" y="490" as="targetPoint" />
          </mxGeometry>
        </mxCell>
        <mxCell id="OgCsggQH-eWe1-viaGaM-9" value="" style="endArrow=classic;html=1;strokeWidth=4;" edge="1" parent="1">
          <mxGeometry width="50" height="50" relative="1" as="geometry">
            <mxPoint x="600.5" y="210" as="sourcePoint" />
            <mxPoint x="600.5" y="280" as="targetPoint" />
            <Array as="points">
              <mxPoint x="600.5" y="260" />
            </Array>
          </mxGeometry>
        </mxCell>
        <mxCell id="OgCsggQH-eWe1-viaGaM-11" value="&lt;font style=&quot;font-size: 18px&quot;&gt;L1&lt;/font&gt;" style="text;html=1;strokeColor=none;fillColor=none;align=center;verticalAlign=middle;whiteSpace=wrap;rounded=0;comic=1;" vertex="1" parent="1">
          <mxGeometry x="601" y="230" width="40" height="20" as="geometry" />
        </mxCell>
        <mxCell id="OgCsggQH-eWe1-viaGaM-12" value="&lt;font style=&quot;font-size: 18px&quot;&gt;L2&lt;/font&gt;" style="text;html=1;strokeColor=none;fillColor=none;align=center;verticalAlign=middle;whiteSpace=wrap;rounded=0;comic=1;" vertex="1" parent="1">
          <mxGeometry x="600.5" y="520" width="40" height="20" as="geometry" />
        </mxCell>
        <mxCell id="OgCsggQH-eWe1-viaGaM-16" value="&lt;font style=&quot;font-size: 30px&quot;&gt;head&lt;/font&gt;" style="text;html=1;strokeColor=none;fillColor=none;align=center;verticalAlign=middle;whiteSpace=wrap;rounded=0;comic=1;" vertex="1" parent="1">
          <mxGeometry x="80" y="620" width="40" height="20" as="geometry" />
        </mxCell>
        <mxCell id="OgCsggQH-eWe1-viaGaM-17" value="" style="endArrow=classic;html=1;strokeWidth=4;" edge="1" parent="1">
          <mxGeometry width="50" height="50" relative="1" as="geometry">
            <mxPoint x="140" y="629.41" as="sourcePoint" />
            <mxPoint x="180" y="629.41" as="targetPoint" />
            <Array as="points">
              <mxPoint x="170" y="629.41" />
            </Array>
          </mxGeometry>
        </mxCell>
        <mxCell id="OgCsggQH-eWe1-viaGaM-20" value="&lt;font style=&quot;font-size: 23px&quot;&gt;null&lt;/font&gt;" style="text;html=1;strokeColor=none;fillColor=none;align=center;verticalAlign=middle;whiteSpace=wrap;rounded=0;comic=1;" vertex="1" parent="1">
          <mxGeometry x="560" y="300" width="80" height="40" as="geometry" />
        </mxCell>
        <mxCell id="OgCsggQH-eWe1-viaGaM-28" value="&lt;font style=&quot;font-size: 23px&quot;&gt;sum%10=0&lt;/font&gt;" style="text;html=1;strokeColor=none;fillColor=none;align=center;verticalAlign=middle;whiteSpace=wrap;rounded=0;comic=1;" vertex="1" parent="1">
          <mxGeometry x="70" y="510" width="230" height="40" as="geometry" />
        </mxCell>
        <mxCell id="OgCsggQH-eWe1-viaGaM-29" value="&lt;font style=&quot;font-size: 30px&quot;&gt;7&lt;/font&gt;" style="rounded=0;whiteSpace=wrap;html=1;comic=1;fillColor=#d5e8d4;strokeColor=#82b366;" vertex="1" parent="1">
          <mxGeometry x="190" y="590" width="80" height="80" as="geometry" />
        </mxCell>
        <mxCell id="OgCsggQH-eWe1-viaGaM-30" value="&lt;font style=&quot;font-size: 30px&quot;&gt;0&lt;/font&gt;" style="rounded=0;whiteSpace=wrap;html=1;comic=1;fillColor=#d5e8d4;strokeColor=#82b366;" vertex="1" parent="1">
          <mxGeometry x="330" y="590" width="80" height="80" as="geometry" />
        </mxCell>
        <mxCell id="OgCsggQH-eWe1-viaGaM-31" value="" style="endArrow=classic;html=1;strokeWidth=4;" edge="1" parent="1">
          <mxGeometry width="50" height="50" relative="1" as="geometry">
            <mxPoint x="280" y="629.7099999999998" as="sourcePoint" />
            <mxPoint x="320" y="629.7099999999998" as="targetPoint" />
            <Array as="points">
              <mxPoint x="310" y="629.7099999999999" />
            </Array>
          </mxGeometry>
        </mxCell>
        <mxCell id="OgCsggQH-eWe1-viaGaM-32" value="&lt;font style=&quot;font-size: 30px&quot;&gt;8&lt;/font&gt;" style="rounded=0;whiteSpace=wrap;html=1;comic=1;fillColor=#d5e8d4;strokeColor=#82b366;" vertex="1" parent="1">
          <mxGeometry x="470" y="590" width="80" height="80" as="geometry" />
        </mxCell>
        <mxCell id="OgCsggQH-eWe1-viaGaM-33" value="" style="endArrow=classic;html=1;strokeWidth=4;" edge="1" parent="1">
          <mxGeometry width="50" height="50" relative="1" as="geometry">
            <mxPoint x="420" y="629.7099999999998" as="sourcePoint" />
            <mxPoint x="460" y="629.7099999999998" as="targetPoint" />
            <Array as="points">
              <mxPoint x="450" y="629.7099999999999" />
            </Array>
          </mxGeometry>
        </mxCell>
        <mxCell id="OgCsggQH-eWe1-viaGaM-34" value="&lt;font style=&quot;font-size: 23px&quot;&gt;null&lt;/font&gt;" style="text;html=1;strokeColor=none;fillColor=none;align=center;verticalAlign=middle;whiteSpace=wrap;rounded=0;comic=1;" vertex="1" parent="1">
          <mxGeometry x="560" y="420" width="80" height="40" as="geometry" />
        </mxCell>
      </root>
    </mxGraphModel>
  </diagram>
</mxfile>
